<svg display="none" xmlns="http://www.w3.org/2000/svg">


    <symbol id="favourite-icon" viewBox="0 0 22 20">
        <path d="M18.4626 1.99415C15.7809 0.349229 13.4404 1.01211 12.0344 2.06801C11.4578 2.50096 11.1696 2.71743 11 2.71743C10.8304 2.71743 10.5422 2.50096 9.96565 2.06801C8.55962 1.01211 6.21909 0.349229 3.53744 1.99415C0.0180686 4.15294 -0.778279 11.2749 7.33953 17.2834C8.88572 18.4278 9.65881 19 11 19C12.3412 19 13.1143 18.4278 14.6605 17.2834C22.7783 11.2749 21.9819 4.15294 18.4626 1.99415Z" stroke-width="1.5" stroke-linecap="round"/>
    </symbol>

    <symbol id="login-icon" viewBox="0 0 20 20">
        <path d="M13 15.625C12.9264 17.4769 11.3831 19.0494 9.31564 18.9988C8.83464 18.9871 8.24014 18.8194 7.05112 18.484C4.18961 17.6769 1.70555 16.3204 1.10956 13.2816C1 12.723 1 12.0944 1 10.8373L1 9.16274C1 7.90561 1 7.27704 1.10956 6.71845C1.70555 3.67963 4.18961 2.32314 7.05112 1.516C8.24014 1.18062 8.83465 1.01293 9.31564 1.00116C11.3831 0.95058 12.9264 2.52305 13 4.37499" stroke-width="1.5" stroke-linecap="round"/>
        <path d="M8 10H19M8 10C8 9.29977 9.9943 7.99153 10.5 7.5M8 10C8 10.7002 9.9943 12.0085 10.5 12.5" stroke-width="1.5" stroke-linecap="round" stroke-linejoin="round"/>
    </symbol>

    <symbol id="cart-icon" viewBox="0 0 21 22">
        <path d="M6.5 15H13.7632C18.2508 15 18.9333 12.1808 19.761 8.06908C19.9998 6.88311 20.1192 6.29013 19.8321 5.89507C19.545 5.5 18.9947 5.5 17.8941 5.5H4.5" stroke-width="1.5" stroke-linecap="round"/>
        <path d="M6.5 15L3.87873 2.51493C3.65615 1.62459 2.85618 1 1.93845 1H1" stroke-width="1.5" stroke-linecap="round"/>
        <path d="M7.38 15H6.96857C5.60522 15 4.5 16.1513 4.5 17.5714C4.5 17.8081 4.6842 18 4.91143 18H16" stroke-width="1.5" stroke-linecap="round" stroke-linejoin="round"/>
        <circle cx="9" cy="19.5" r="1.5" stroke-width="1.5"/>
        <circle cx="16" cy="19.5" r="1.5" stroke-width="1.5"/>
    </symbol>

    <symbol id="prev-white" viewBox="0 0 8 14">
        <path d="M7 1L1.70711 6.29289C1.37377 6.62623 1.20711 6.79289 1.20711 7C1.20711 7.20711 1.37377 7.37377 1.70711 7.70711L7 13" stroke-width="1.5" stroke-linecap="round" stroke-linejoin="round"/>
    </symbol>

    <symbol id="next-white" viewBox="0 0 8 14">
        <path d="M1.4873 1L6.7802 6.29289C7.11353 6.62623 7.2802 6.79289 7.2802 7C7.2802 7.20711 7.11353 7.37377 6.7802 7.70711L1.4873 13" stroke-width="1.5" stroke-linecap="round" stroke-linejoin="round"/>
    </symbol>

    <symbol id="search-icon" viewBox="0 0 24 24">
        <path d="M17.5 17.5L22 22" stroke-width="1.5" stroke-linecap="round" stroke-linejoin="round"/>
        <path d="M20 11C20 6.02944 15.9706 2 11 2C6.02944 2 2 6.02944 2 11C2 15.9706 6.02944 20 11 20C15.9706 20 20 15.9706 20 11Z" stroke-width="1.5" stroke-linejoin="round"/>
    </symbol>

    <svg id="call-icon" viewBox="0 0 24 24">
        <path d="M3.77762 11.9424C2.8296 10.2893 2.37185 8.93948 2.09584 7.57121C1.68762 5.54758 2.62181 3.57081 4.16938 2.30947C4.82345 1.77638 5.57323 1.95852 5.96 2.6524L6.83318 4.21891C7.52529 5.46057 7.87134 6.08139 7.8027 6.73959C7.73407 7.39779 7.26737 7.93386 6.33397 9.00601L3.77762 11.9424ZM3.77762 11.9424C5.69651 15.2883 8.70784 18.3013 12.0576 20.2224M12.0576 20.2224C13.7107 21.1704 15.0605 21.6282 16.4288 21.9042C18.4524 22.3124 20.4292 21.3782 21.6905 19.8306C22.2236 19.1766 22.0415 18.4268 21.3476 18.04L19.7811 17.1668C18.5394 16.4747 17.9186 16.1287 17.2604 16.1973C16.6022 16.2659 16.0661 16.7326 14.994 17.666L12.0576 20.2224Z" stroke-width="1.5" stroke-linejoin="round"/>
        <path d="M14 6.83185C15.4232 7.43624 16.5638 8.57677 17.1682 10M14.654 2C18.1912 3.02076 20.9791 5.80852 22 9.34563" stroke-width="1.5" stroke-linecap="round"/>
    </svg>


</svg>
